# xmcd
#
# Track frame offsets: 
#        150
#        18868
#        31468
#        50867
#        64867
#        82050
#        100161
#        114629
#        136099
#        155981
#        170825
#        198691
#        218777
#        231376
#        244090
#
# Disc length: 3540 seconds
#
# Revision: 0
# Processed by: cddbd v1.5.2PL0 Copyright (c) Steve Scherf et al.
# Submitted via: ExactAudioCopy v0.99pb5
#
DISCID=e10dd20f
DTITLE=Jewel  - Lullaby - 2009  FLAC
DYEAR=1900
DGENRE=
TTITLE0=Raven
TTITLE1=All the Animals
TTITLE2=Sweet Dreams
TTITLE3=Twinkle, Twinkle Little Star
TTITLE4=Circle Song
TTITLE5=The Cowboy's Lament
TTITLE6=Daydream Land
TTITLE7=Sov Gott (Sleep Well)
TTITLE8=Dreamer
TTITLE9=Forever and a Day (Always)
TTITLE10=Gloria
TTITLE11=Somewhere Over the Rainbow
TTITLE12=Angel Standing By
TTITLE13=Simple Gifts
TTITLE14=Brahms' Lullaby
EXTD=
EXTT0=
EXTT1=
EXTT2=
EXTT3=
EXTT4=
EXTT5=
EXTT6=
EXTT7=
EXTT8=
EXTT9=
EXTT10=
EXTT11=
EXTT12=
EXTT13=
EXTT14=
PLAYORDER=
